<?xml version="1.0" encoding="utf-8"?>
<!-- Generator: Adobe Illustrator 22.1.0, SVG Export Plug-In . SVG Version: 6.00 Build 0)  -->
<svg version="1.1" id="Layer_1" xmlns="http://www.w3.org/2000/svg" xmlns:xlink="http://www.w3.org/1999/xlink" x="0px" y="0px"
	 viewBox="0 0 41.5 29.8" style="enable-background:new 0 0 41.5 29.8;" xml:space="preserve">
<style type="text/css">
	.st0{fill:#FFD97C;}
	.st1{fill:#FFD97B;}
</style>
<path class="st0" d="M39.3,10.5c-2.1,4.6-8.8,10.7-10.7,9.5c-0.1-0.1-0.2-0.2-0.3-0.3c-2.6-1.3-6.6-6.4-7.9-10.2
	c-1.5-4.8,1.5-7.8,3.7-8.5c2.2-0.8,5.3,0.6,5.9,5.4c1-4.5,4-5.5,6.5-4.7C38.8,2.4,41.4,5.8,39.3,10.5z"/>
<g>
	<g>
		<path class="st1" d="M3.6,27.8c-0.4-4.7,6.7-1.6,9-2.8c2.1-1,2.9-3.4,2.3-5.5c-0.4-1.5-2.8-0.9-2.4,0.7c1.2,4.1-5.8,1.9-8,2.6
			c-2.2,0.7-3.7,2.7-3.5,5C1.3,29.4,3.8,29.4,3.6,27.8L3.6,27.8z"/>
	</g>
</g>
</svg>
